<svg width="64" height="64" viewBox="0 0 64 64" fill="none" xmlns="http://www.w3.org/2000/svg">
    <path d="M53.3333 8H10.6667C9.95942 8 9.28115 8.28095 8.78105 8.78105C8.28095 9.28115 8 9.95942 8 10.6667V53.3333C8 54.0406 8.28095 54.7189 8.78105 55.219C9.28115 55.7191 9.95942 56 10.6667 56H53.3333C54.0406 56 54.7189 55.7191 55.219 55.219C55.7191 54.7189 56 54.0406 56 53.3333V10.6667C56 9.95942 55.7191 9.28115 55.219 8.78105C54.7189 8.28095 54.0406 8 53.3333 8ZM22.2373 48.8987H15.112V25.992H22.2373V48.8987ZM18.6747 22.864C17.5799 22.864 16.5299 22.4291 15.7557 21.6549C14.9816 20.8808 14.5467 19.8308 14.5467 18.736C14.5467 17.6412 14.9816 16.5912 15.7557 15.8171C16.5299 15.0429 17.5799 14.608 18.6747 14.608C19.7695 14.608 20.8195 15.0429 21.5936 15.8171C22.3678 16.5912 22.8027 17.6412 22.8027 18.736C22.8027 19.8308 22.3678 20.8808 21.5936 21.6549C20.8195 22.4291 19.7695 22.864 18.6747 22.864ZM48.9013 48.8987H41.784V37.76C41.784 35.104 41.736 31.688 38.0827 31.688C34.376 31.688 33.8133 34.584 33.8133 37.5733V48.9013H26.7013V25.9947H33.528V29.1253H33.6267C34.5733 27.3253 36.8987 25.4267 40.3573 25.4267C47.568 25.4267 48.8987 30.168 48.8987 36.3387L48.9013 48.8987Z" fill="black"/>
    <rect x="12" y="12" width="40" height="39" fill="black"/>
    <g clip-path="url(#clip0_54_12)">
        <path d="M31.5 12.7501C27.035 12.7333 22.7105 14.3104 19.3046 17.1978C15.8987 20.0851 13.635 24.0931 12.9207 28.5007C12.2065 32.9082 13.0886 37.426 15.4083 41.2412C17.7281 45.0564 21.3332 47.9185 25.575 49.3126C26.5125 49.4626 26.8125 48.8814 26.8125 48.3751V45.2064C21.6188 46.3314 20.5125 42.7501 20.5125 42.7501C20.1623 41.5856 19.4032 40.5868 18.375 39.9376C16.6687 38.7751 18.5063 38.8126 18.5063 38.8126C19.0948 38.8888 19.6586 39.097 20.1553 39.4217C20.6521 39.7463 21.069 40.1791 21.375 40.6876C21.8958 41.6137 22.7612 42.2968 23.783 42.5882C24.8047 42.8796 25.9002 42.7559 26.8313 42.2439C26.9167 41.2934 27.335 40.4036 28.0125 39.7314C24 39.3189 19.5375 37.7064 19.5375 30.5626C19.4833 28.6904 20.1551 26.8697 21.4125 25.4814C20.8416 23.8678 20.9087 22.0971 21.6 20.5314C21.6 20.5314 23.175 20.0251 26.7563 22.4064C29.8267 21.581 33.0608 21.581 36.1313 22.4064C39.7125 19.9876 41.2875 20.5314 41.2875 20.5314C41.9788 22.0971 42.0459 23.8678 41.475 25.4814C42.7324 26.8697 43.4042 28.6904 43.35 30.5626C43.35 37.7251 38.9625 39.3001 34.7813 39.7689C35.2316 40.2215 35.58 40.7652 35.8031 41.3634C36.0262 41.9616 36.1189 42.6007 36.075 43.2376V48.3751C36.075 48.8814 36.375 49.4814 37.3313 49.3126C41.5653 47.921 45.1653 45.0665 47.4855 41.2612C49.8057 37.4558 50.6946 32.9484 49.9926 28.5471C49.2907 24.1457 47.0438 20.1384 43.655 17.2436C40.2662 14.3487 35.9569 12.7557 31.5 12.7501Z" fill="#EAB308"/>
    </g>
    <defs>
        <clipPath id="clip0_54_12">
            <rect width="45" height="45" fill="white" transform="translate(9 9)"/>
        </clipPath>
    </defs>
</svg>
