<svg xmlns="http://www.w3.org/2000/svg" viewBox="0 0 552.17 514.77"><defs><style>.cls-1{fill:#fbd801;}.cls-2{fill:#facf9a;}.cls-3{fill:#a15a2f;}.cls-4{fill:#7c4320;}.cls-5{fill:#fc9756;}.cls-6{fill:#fad901;}.cls-7{fill:#784120;}.cls-8{fill:#f9a901;}.cls-9{fill:#fccf9a;}.cls-10{fill:#fba400;}.cls-11{fill:#fd9756;}.cls-12{fill:#f7fbf9;}.cls-13{fill:#f9fbf7;}.cls-14{fill:#fafbfa;}.cls-15{fill:#fafaf4;}.cls-16{fill:#faad01;}.cls-17{fill:#f8a602;}.cls-18{fill:#f7a602;}.cls-19{fill:#f8faf6;}.cls-20{fill:#f6b374;}.cls-21{fill:#f8b371;}.cls-22{fill:#f7fbf6;}.cls-23{fill:#f89d5b;}.cls-24{fill:#fabd77;}.cls-25{fill:#f9f9f4;}.cls-26{fill:#f8faf3;}.cls-27{fill:#f8faf5;}.cls-28{fill:#f68942;}.cls-29{fill:#f88e3b;}.cls-30{fill:#f3f7ee;}.cls-31{fill:#f1f2e6;}.cls-32{fill:#f3f3f6;}.cls-33{fill:#774b3d;}.cls-34{fill:#d1c7b5;}.cls-35{fill:#f9ed70;}.cls-36{fill:#032a3f;}.cls-37{fill:#032a3d;}.cls-38{fill:#042939;}.cls-39{fill:#042b38;}.cls-40{fill:#ea8942;}.cls-41{fill:#f6faf9;}.cls-42{fill:#f6f8f8;}.cls-43{fill:#fad3a4;}.cls-44{fill:#052a3b;}.cls-45{fill:#062c39;}.cls-46{fill:none;}.cls-47{fill:#012b3b;}.cls-48{fill:#34495e;}.cls-49{fill:#042d3c;}</style></defs><title>Asset 1</title><g id="Layer_2" data-name="Layer 2"><g id="Layer_1-2" data-name="Layer 1"><path class="cls-1" d="M388.89,318.39l2,.88c2.62,3,6.22,5.14,8.79,8,6.53,7.35,12.59,15.06,15.1,25.08,3.1,12.4,4.94,25,7,37.56.7,4.19,1.65,8.32,2.37,12.5.21,1.23.65,2.45-.28,3.58a91.24,91.24,0,0,1-16.61,0c-2.51-3.12-3.08-7-4.2-10.68-2.33-7.6-5-15.06-8-22.52-1.52.82-1.45,2.18-1.71,3.3-1.19,5.1-2.72,10.09-4.35,15.06-.36,1.12-.38,3-2.5,2.2-6-5-12.52-9-20.27-10.59-2.19-.45-1.79-2-1.79-3.48,0-8.12.1-16.23,0-24.35-.13-8.81-4.14-12.55-13-12.55q-72.66,0-145.33,0c-3.19,0-6.31.26-8.94,2.11a11.6,11.6,0,0,0-4.94,10c0,8.37,0,16.73.05,25.1,0,1.91-.3,3-2.58,3.6-7.31,2-13.47,6.26-19.25,11.05-1.94-.79-2.07-2.6-2.48-4.29-1.43-5.77-3.54-11.34-5.37-17.2-2.07,2.95-3.06,6.32-4.3,9.54-2.45,6.39-4.46,12.93-6.59,19.43-.64,1.92-1.34,3.78-3.65,4.28-11.54.42-23.08.53-34.62.12-.93-1.05-.33-2.06,0-3.14,4.2-13.16,9.55-25.92,14-39,2-6,3.48-12.3,7.89-17.21,1.57-1.25,2.88-2.66,2.87-4.85a36.25,36.25,0,0,1,12.43-11.49c6.89-3.91,14.32-6.59,21.63-9.33,9.2-3.45,18.56-6.6,27.9-9.76,7.56-2.55,15.16-5,22.64-7.74,1.35-.5,2.59-.79,3.89,0,7.24,12.07,17.35,20.64,30.81,25,13.26,4.24,26.67,4.1,40.12.85,1.09-.26,2.18-.47,3.27-.71a59.39,59.39,0,0,0,33.09-7.46A44.12,44.12,0,0,0,347.36,309a5,5,0,0,1,4.33-.08c10.63,4.22,21.79,6.77,32.6,10.4A4,4,0,0,0,388.89,318.39Z"/><path class="cls-2" d="M214.06,100.92l3.62,2.3c-1.79,3.87-1.67,4.47,2.22,6.59a91.28,91.28,0,0,0,38.93,10.88c10.57.58,21.19.58,31.66-1.89a124.69,124.69,0,0,0,23-7.77,33.39,33.39,0,0,1,13.7-3.39c7.79,0,13.53,6,15.06,15.49a354.5,354.5,0,0,1,4.77,54,77.74,77.74,0,0,1-1.59,16.69c-3.62,10.07-11.14,15.94-20.95,19.27-2.2.74-3.68-.38-4.22-2.52-2.65-10.43-10.33-13.86-20-14-14-.23-28-.16-41.94,0a28.69,28.69,0,0,0-12.06,2.29c-4.51,2.13-7.71,5.35-9,10.33-1.2,4.47-2.51,5.15-6.69,3.45-12.86-5.26-20-15.21-22.94-28.48-.37-1.67-1.4,1.57-1.59-.29a4.24,4.24,0,0,1-.33-3.28c1.49-5.14,1-10.4,1.12-15.63A336,336,0,0,1,212,111.37C212.61,107.88,211.51,104,214.06,100.92Z"/><path class="cls-3" d="M343.1,38l1.29,3c.13.53,0,1.13-.45,1.3-4.31,1.53-4.61,5.3-5.34,9C336.21,63.51,325.24,71,312.88,69.1a46.56,46.56,0,0,1-16.26-5.35A9.45,9.45,0,0,0,291.39,62a18,18,0,0,1-6.06,15.44,50.11,50.11,0,0,1-18.22,10.81c-13.44,4.59-27.16,4.74-41,2.1A46.73,46.73,0,0,1,214,85.85a78.27,78.27,0,0,1-16.41-13.61c-1.09-1.15-2.26-2.32-2.24-4.1,2.1-1.41,3.76.27,5.5.88,14,4.89,28.13,6.21,42.48,1.4,3.6-1.21,6.71-3.26,10.12-5.41-3.39.72-6.54,1.87-9.61-.08a2.38,2.38,0,0,1,0-.38c.91-8.08,0-10-10-10.2-7.89-.14-15.61,1.72-23.51,1.53a85.78,85.78,0,0,1-18.75-2.7c.51-1.12,1.58-1.18,2.55-1.19,10.59-.14,19.5-4.84,28.07-10.38A138.55,138.55,0,0,1,238,32.24c11.94-5.66,24.25-7.48,37.13-3.67a26.13,26.13,0,0,1,9.82,5.3c1.42,1.25,2.78,2.66,1.55,4.9,4.79-5.73,11.12-8.94,18-10.92,9.27-2.66,18.65-3.52,27.94.19A15.3,15.3,0,0,1,338.37,32C340.46,33.55,341.46,36,343.1,38Z"/><path class="cls-4" d="M206.53,184.31l1-2.75C209.75,189,212.1,196,217,201.78c4.13,4.92,9.43,8.05,15.33,10.36,2,.8,2.9.76,3.52-1.82,2.11-8.88,7.65-13.8,16.88-14.27a506.39,506.39,0,0,1,52.42.07c8.83.47,14.05,5.57,16.08,14.2.48,2.05.92,2.65,3.17,1.8,9.16-3.45,16.49-8.76,20.08-18.27,1.74-5.63,3.16-11.39,7.32-15.95.94-1,.46-2.62.65-4s-.39-2.86,1.58-3.21a124,124,0,0,1-1,27.6c-2,14.72-10.43,26.4-21.37,36.1-5.13,4.55-10.42,9.3-16.44,12.39-10.43,5.36-21.28,9.79-33.49,10.14-17.15.51-32.5-4.31-46.55-13.82-1-.67-2.31-1.1-2.63-2.51-10.59-8.82-17.13-20.47-22.76-32.73-2.87-6.27-4.72-12.83-4.31-19.84C205.5,186.74,205.23,185.29,206.53,184.31Z"/><path class="cls-5" d="M354,170.74c-.47,4.29-1.1,8.24-4.2,11.9-2.6,3.05-3.63,7.43-5.35,11.22,2.6-13.86,1-27.7.17-41.59-.54-9.46-2-18.77-3.38-28.08-1.12-7.46-3.51-14.27-13-15.41-4.58-.56-9.16.8-13.3,2.82-18.26,8.93-37.64,11.78-57.65,10.19a93.76,93.76,0,0,1-39.08-11.57,11,11,0,0,1-1.3-.74c-1.28-1-2.38-2.12-2.27-4,.12-2.1,2.26-1.16,3-2.23,8.12,2.8,16.22,5.53,24.92,6.21,12.12.95,23.77-.84,34.48-6.46,11.78-6.18,23.94-9.62,37.33-9,7.88.37,15.73-.44,23-4,1.37-.67,2-.37,3.06.82,7.17,8.26,10.2,18.06,11.38,28.71A402.08,402.08,0,0,1,354,170.74Z"/><path class="cls-6" d="M224.26,383.68a75.92,75.92,0,0,0-12.79-3.84c-1.86-4.86-1.28-9.77-.25-14.66.37-1.78,1.73-2.64,3.52-2.88a35.25,35.25,0,0,1,4.48-.17q60.41,0,120.81,0c2.1,0,4.26-.29,6.23.8,1.33,1.46,0,2.55-.61,3.64-2.64,4.85-6.21,9-9.63,13.34a10.59,10.59,0,0,1-9.12,4.15c-8.74-.09-17.49,0-26.23,0q-35.42,0-70.82,0C228,384.06,226.12,383.86,224.26,383.68Z"/><path class="cls-7" d="M214,85.85c5.55,1.12,10.74,3.53,16.43,4.26,19.55,2.49,38,.33,53.69-12.85,5.08-4.28,7.6-10.09,5.63-17.38,4.74,1.07,8.32,3.86,12.43,5.38,6.35,2.35,12.79,4,19.59,2.62,5.24-1.07,9.1-4.2,12.26-8.47a23.4,23.4,0,0,0,4.28-13.2c.11-2.07,1.44-2.81,2.82-3.54,1.08-.58,2.4-.68,3.24-1.72,3.05,3.62,3.72,8.35,5.61,12.5,1.31,2.86,2.84,3.54,5.38,3.09a34.53,34.53,0,0,1,16.95.94c1.43.46,3.15.93,3.39,2.45s-1.67,1.53-2.64,2.22c-3.72,2.68-7.47,5.33-11.08,8.16-1.78,1.39-2.4,3.16-.4,5,7.46,7,10.11,15.92,10.5,25.76.41,10.43-2,20.32-6.18,30-.26-5.26-1.64-10.32-2-15.52-.83-11.75-4.24-22.38-13.37-30.43A4.06,4.06,0,0,1,349,80.9c.45-2.28.71-4.54-1.73-5.86-2.76-1.48-5.9-2.24-8.49-.21-6.87,5.36-14.61,6.88-23.1,6.67-7.33-.18-14.69-.52-22,1.11-7.55,1.69-14.4,4.84-21.23,8.35-10.86,5.58-22.38,6.65-34.45,4.52a76.14,76.14,0,0,1-22.44-8.1A2.66,2.66,0,0,1,214,85.85Z"/><path class="cls-8" d="M224.26,383.68c1.46-.91,3.09-.81,4.71-.81,32,0,63.89-.19,95.83.18,5.95.07,9.55-2.19,12.63-6.56s6.14-8.67,9.22-13a2.42,2.42,0,0,1,3.55-.25c.06,4.74.09,9.47.19,14.2,0,1.59-.29,2.37-2.17,2.62-15.41,2-26.63,10.21-34,23.74-1.08,2-2.45,2.45-4.49,2.44-20.33,0-40.66-.08-61,.1-3.29,0-4.28-1.56-5.6-4.06C238.83,394.14,232.11,388.3,224.26,383.68Z"/><path class="cls-9" d="M313.66,303.32c-6,7.77-14.16,12.09-23.56,13.85-16.59,3.11-31.93.5-44.89-11.24a12.83,12.83,0,0,1-1.37-1.71,11.83,11.83,0,0,1-1.07-3.93c-.07-7.46-.09-14.91,0-22.37a5.83,5.83,0,0,1,.55-2.53c1.46-1.56,2.5-.13,3.45.62,18.1,14.24,37.72,14.24,58.19,6.3,1.86-.73,3.28-2.28,5.17-3,1.6-.58,3.48-.6,3.44,1.4C313.44,288.27,315.77,295.79,313.66,303.32Z"/><path class="cls-10" d="M423.91,406c-4-17-5.35-34.54-9.68-51.52a54.75,54.75,0,0,0-12.09-22.75c-3-3.51-6.87-6.09-9.95-9.49-.75-.82-2.37-1.35-1.29-3,19.63,3.8,33.46,14.87,40.38,33.62,5.86,15.87,10.88,32.06,16.21,48.12,1.64,4.94,1.41,5.26-3.77,5.22C437.12,406.18,430.51,406.77,423.91,406Z"/><path class="cls-11" d="M313.66,303.32c-.25-6.93-.57-13.86-.7-20.79,0-2.49-.46-3.74-3-2-11.11,7.45-23.62,9-36.42,7.71-10.24-1-19.93-4.16-27.6-11.68-.62-.61-1.35-1.09-2-1.63-4-2.76-6.73-10.44-5.24-14.85,8.66,4.11,17.26,8.3,27,9.6,17.59,2.36,34.25-.22,49.9-8.78,4.56-2.49,4.7-2.39,4.71,2.83,0,7.86-.24,15.74.12,23.58C320.62,293.85,317.76,298.76,313.66,303.32Z"/><path class="cls-12" d="M350.2,363.24l-3.55.25c-9.47-.07-18.95-.18-28.42-.18q-50.49,0-101,0c-5.2,0-5.25,0-5.49,5.3-.16,3.74-.18,7.48-.26,11.22-5.86.07-5.85.07-5.84-5.88,0-5,.09-10,0-15,0-2.06.46-2.81,2.68-2.81q68.5,0,137-.06C350.66,356.12,350.66,356.21,350.2,363.24Z"/><path class="cls-13" d="M135.92,346.88c-4.23,7.08-6.53,14.94-9.35,22.61-2,5.58-3.31,11.44-6.19,16.74-2.7,5-3.11,10.76-5.39,15.9-.58,1.31-1,2.66-1.56,4h-5.54c1.23-6.2,3.87-11.84,5.74-17.69,3.74-11.64,7.79-23.18,11.75-34.74,6-17.54,18.09-28.21,35.93-33.42,19.75-5.78,38.87-13.51,57.91-21.32,3.73-1.53,5.55-1.33,6.6,2.56a20.31,20.31,0,0,0,.83,2.07c-5,1.65-10,3.25-15,5-9.63,3.28-19.3,6.48-28.85,10-10.53,3.87-21.18,7.41-31.18,12.68-5.23,2.76-9.1,6.71-12.64,11.21A28.9,28.9,0,0,0,135.92,346.88Z"/><path class="cls-14" d="M338.34,32.74C329.18,25.26,318.68,26,308.07,28c-9.12,1.73-16.7,6.37-23.1,13.46-.55-2.2,2.88-3.73.58-5.68a26.3,26.3,0,0,0-4.75-3.6c-12.11-6.19-24.51-5.55-37-1.31-9.1,3.08-16.58,9.05-24.67,13.93-8.48,5.13-17.41,8.56-27.47,8.42-1.1-.22-2.21-.41-3.3-.67-.58-.14-1.14-.41-2.49-.91,3.36-.49,6-.74,8.56-1.26a51.53,51.53,0,0,0,25.72-13.78c8.35-8,17.64-14.28,29.43-16,15.23-2.26,28.22,1.39,38,14.27,8-10,18.08-15.24,30.93-14.17,8.48.7,15.56,4.2,20.76,11.13C339.45,32.56,339.1,32.84,338.34,32.74Z"/><path class="cls-15" d="M206.53,184.31c-1.47,16.82,6.94,30.13,15.37,43.45,3,4.74,7.33,8.37,10.59,12.88-19.1-13.91-30-32.32-30.39-56.27-.38-21.83-.48-43.67,2-65.42a105.48,105.48,0,0,1,4.14-18.19c.93-3.1,1.93-3.22,4-1.22a19.81,19.81,0,0,0,1.76,1.38c-.09,6.89-1.78,13.59-2.64,20.39-.83,6.52-1.38,13.06-2.06,19.59a303.75,303.75,0,0,0-1.54,34.64C207.85,178.5,205.82,181.21,206.53,184.31Z"/><path class="cls-16" d="M347.39,309.51c-2.15,4.73-5.79,7.88-10.1,10.75a64.76,64.76,0,0,1-17.91,7.94c-5.36,1.58-11,1.22-16.49,1.91a2.16,2.16,0,0,1-2-1.42c7.39-3.43,14.59-7.1,20.51-12.94,3.74-3.68,6.53-8,9.4-12.32,5.44.2,10.12,3,15.19,4.48A2.27,2.27,0,0,1,347.39,309.51Z"/><path class="cls-17" d="M148.05,406c3.68-4.05,4-9.5,5.84-14.29,2.43-6.25,4.59-12.61,6.94-18.89a3.14,3.14,0,0,1,2.32-2.44q3.65,11.91,7.29,23.86c-2.85,3.39-6,6.54-8.1,10.52a2.89,2.89,0,0,1-2.79,1.51C155.71,406.17,151.88,406.09,148.05,406Z"/><path class="cls-18" d="M386.52,393.35c2.63-3.38,3-7.61,4.31-11.49,1.1-3.27,1.34-6.81,2.88-10,.25-.52.15-1.33,1-1.41s1.1.52,1.31,1.11c3.94,11.41,8.29,22.69,11.31,34.4-2.85.1-5.71.18-8.57.29a3.35,3.35,0,0,1-3.28-2A49.46,49.46,0,0,0,386.52,393.35Z"/><path class="cls-19" d="M243.86,64.93c4.29.6,8.37-.24,13-2.45a14.13,14.13,0,0,1-5.77,5.35c-12.91,7.55-26.72,7.67-40.91,5-5.14-1-9.87-3.15-14.83-4.67l-3.63-3.4c4.18,1,7.45,1.88,10.79,2.44,11.66,1.95,23.34,1.16,35-.16C239.68,66.78,241.75,65.65,243.86,64.93Z"/><path class="cls-20" d="M228.89,406.63H179.81a33.23,33.23,0,0,1,14.1-8.11c11.25-3.26,22.16-2.87,32,4.51C227.23,404,228.68,404.79,228.89,406.63Z"/><path class="cls-21" d="M376.07,406.12c-.8.86-1.85.54-2.8.55q-22.15.09-44.3.12a3.13,3.13,0,0,1-1-.37c6.2-3.23,11.68-8,18.92-9,9.52-1.33,18.89-1.68,27,4.88C375.09,403.28,376.78,404,376.07,406.12Z"/><path class="cls-22" d="M347.39,309.51l-16.63-6.08c2.21-6,2.18-5.93,8-3.75,15.19,5.65,30.42,11.23,45.62,16.85,1.52.56,3,1.24,4.49,1.86.75,3.1-1.15,3.51-3.25,2.69-11.3-4.41-23.33-6.58-34.55-11.24C350,309.39,348.63,309.61,347.39,309.51Z"/><path class="cls-23" d="M366.92,160.22c-.07-3.48-.07-7-.22-10.45-.12-2.67,1.13-2.5,3-1.73,7,2.91,12.17,10.19,12,17.85-.18,7.91-3.32,14.17-11.09,17.4-3.7,1.53-4.09,1.28-3.74-2.93,4.21-.15,4.52-.08,5.64-4.93,1.18-5.11,2.58-10.3-2.32-14.88C368.56,159.05,367.82,161.21,366.92,160.22Z"/><path class="cls-24" d="M189.79,183.29c-.46,1.93-1.87.87-2.65.61-7.09-2.37-12.13-10-12.09-18,0-7.83,5.14-15.18,12.06-17.72,2.81-1,3,.21,2.56,2.36a11.8,11.8,0,0,1-3.82,9.89c-3.85,3.79-3.49,8.86-1.94,13.71C185.05,177.66,186.31,181.2,189.79,183.29Z"/><path class="cls-25" d="M238.63,260.07c-.2,5.64,2.62,10.21,5.24,14.85l0,29.3c-4.32-4.5-7.35-9.39-7.05-16.11.39-9,.13-17.94.17-26.92C237,260.11,236.48,258.07,238.63,260.07Z"/><path class="cls-26" d="M228.89,406.63c-11.14-10.7-27.07-11-39.62-5.21-3.31,1.52-5.63,4.73-9.46,5.22-.83,0-1.93.6-2.41-.24-.63-1.1.8-1.34,1.32-1.89,14-14.43,34.59-15.51,47.78-2.47,1.26,1.24,3,2.27,3,4.41,0,.06-.15.16-.25.18A1.53,1.53,0,0,1,228.89,406.63Z"/><path class="cls-27" d="M376.07,406.12A21,21,0,0,0,361,398c-10.24-.89-20.12.18-28.35,7.37-1.3,1.15-3.14.52-4.66,1,4.56-7.95,11.87-11.83,20.54-13.09,11.59-1.69,21.27,2.5,29.31,10.77.61.62,1.86,1.42.91,2.42C378,407.26,376.88,406.9,376.07,406.12Z"/><path class="cls-28" d="M189.79,183.29c-6-.68-5.83-6.22-7.13-10-2.17-6.33-.54-12.26,5.09-16.36,2.51-1.83.54-4.51,1.92-6.4Z"/><path class="cls-29" d="M366.92,160.22c1.43.44,1.37-2.46,2.33-1.48,1.83,1.86,4.8,2.81,5.14,6a37.59,37.59,0,0,1-1.78,15.3c-1.1,3.44-3.75,1.27-5.76.29Q366.88,170.3,366.92,160.22Z"/><path class="cls-30" d="M478.18,406.54c-.83.13-1.85.59-2.41-.18"/><path class="cls-31" d="M190.62,122v8.18c-5.7-10.59-4.65-21.39-1.32-32.28,2.7.85,3,3.25,2.94,5.39C192.09,109.54,191,115.74,190.62,122Z"/><path class="cls-32" d="M190.65,93.22a29.18,29.18,0,0,1-10.23-23.88c3.15,7.87,9.63,14,11.48,22.54a1.19,1.19,0,0,1,.27,2C191.47,94.55,191,93.88,190.65,93.22Z"/><path class="cls-33" d="M190.65,93.22l1.32.47c0-.6,0-1.2-.07-1.8,3.22.28,3.3,3.25,2.89,4.89-2,8-2.65,16.15-3.6,24.27,0,.33-.37.63-.57.94a50.24,50.24,0,0,1,.6-12.48c.74-4,.83-8.09-1.92-11.62C188.71,96,190.34,94.82,190.65,93.22Z"/><path class="cls-34" d="M338.34,32.74l.93-1A12.73,12.73,0,0,1,343.1,38C341.08,36.63,340,34.46,338.34,32.74Z"/><path class="cls-35" d="M135.92,346.88c-.31-2.39.92-3.73,3-4.45A4,4,0,0,1,135.92,346.88Z"/><path class="cls-36" d="M236.38,125.59c5.55.27,11.65.6,17.23,3.52,4.17,2.19,5.48,4.75,4.2,8-1.35,3.44-4.26,4.56-8.68,3.08a42.37,42.37,0,0,0-23.22-1.27c-2.07.45-4.32,1.41-6.4-.42-3.89-3.42-3.41-8,1.32-10.26S230.68,125.71,236.38,125.59Z"/><path class="cls-37" d="M332.16,139.08c-.26-.05-1.49-.24-2.71-.47a46.23,46.23,0,0,0-22.51,1.64c-4.28,1.33-7.26.15-8.35-3.13s.37-6.38,4.27-7.89c10.42-4,21-5.24,31.71-1.21,5.57,2.09,6.58,6.36,2.71,9.95C336,139.15,334.65,139.21,332.16,139.08Z"/><path class="cls-38" d="M229.74,148.17c1.87-5.24,10.54-6.5,15-4.22,6.25,3.2,9.36,10,7.19,16.26a13.92,13.92,0,0,1-13.72,9,12.75,12.75,0,0,1-11.94-10.06c-.32-1.4-.82-2.9.41-4.18,1.22.12,1.9,1.08,2.79,1.74,2.36,1.76,4.7,1.5,6.06-.65a4.6,4.6,0,0,0-1.73-6.14C232.53,149.08,230.82,149.36,229.74,148.17Z"/><path class="cls-39" d="M309.92,148c-.48-2.34,1.39-3,2.86-3.77,4.48-2.35,9.68-1.35,13.74,2.48a12.6,12.6,0,0,1,3.26,14,14.09,14.09,0,0,1-13.33,8.5A13,13,0,0,1,304.53,160c-.55-1.65-1.07-3.34,0-5,1.39,0,2.14,1.15,3.09,1.9a3.59,3.59,0,0,0,5.32-.4c1.6-1.7,1.39-3.56.13-5.43C312.22,149.78,310.47,149.49,309.92,148Z"/><path class="cls-40" d="M279.49,190.16c-6.55,0-11-2.73-11.71-6.57-.13-.76-1-1.72.24-2.29.81-.39,1.36.31,1.94.76,7.46,5.74,9.69,5.75,16.79.15.55-.43,1.17-1.35,1.82-.5a2.53,2.53,0,0,1-.18,3.13C285.92,188,282.76,190,279.49,190.16Z"/><path class="cls-41" d="M229.74,148.17c3-.44,5.48.35,6.83,3.22,1.08,2.28,1.26,4.63-1,6.37s-4.6,1.8-6.74-.25a29.34,29.34,0,0,1-2.13-2.55C226,152,228,150.11,229.74,148.17Z"/><path class="cls-42" d="M309.92,148c3,.74,4.81,2.59,5.13,5.65a4.62,4.62,0,0,1-3.22,4.95c-3.64,1.43-5.39-1.36-7.31-3.6C304.37,151.12,306.07,148.71,309.92,148Z"/><path class="cls-43" d="M307,213.29a4.82,4.82,0,0,1,.1.75c-.24,15.63-5.91,22.32-21.46,24.62-8.25,1.22-16.55.78-24.21-2.88-10-4.75-13.81-11.64-11.56-23,1.51-.47,3,0,4.43.28a137.73,137.73,0,0,0,47.62.13C303.57,212.86,305.3,212.2,307,213.29Z"/><path class="cls-44" d="M307,213.29c-16.69,3.88-33.51,3.55-50.37,1.38a19,19,0,0,1-6.76-1.92c-1.24-4.45-.55-5.35,4-5.34h49.34C308.3,207.4,309.29,208.94,307,213.29Z"/><path class="cls-45" d="M277.9,232.27c-5.48-.23-10.47-1.52-14.56-5.23-1.87-1.7-3-3.8-1.63-6.31,1.52-2.7,3.7-1.19,5.59-.53a31.44,31.44,0,0,0,22-.12c2-.75,4.4-2.13,6,.6,1.44,2.52-.05,4.6-1.83,6.26C289,231,283.49,231.91,277.9,232.27Z"/><line class="cls-46" x1="178.84" y1="37.98" x2="258.39"/><line class="cls-47" x1="167.98" y1="15.38" x2="167.98" y2="15.13"/><line class="cls-46" x1="289.03" y1="28.27" x2="317.02" y2="13.36"/><line class="cls-46" x1="348.61" y1="30.29" x2="395.56" y2="11.34"/><path class="cls-46" d="M287.22,25.55a442.45,442.45,0,0,0-46.74-15.22"/><path class="cls-48" d="M17.53,404.92c2-1.44,1.37-3.59,1.37-5.51,0-12.32-.07-24.65,0-37,0-7.36,1.08-8.63,8.25-8.39,4.81.16,4.78-1.54,3.2-5.19-3.49-8-6.69-16.2-10-24.33-.62-1.53-1-3.16-1.62-4.68-1.2-2.93-.75-5.37,2.32-6.57s4.65,1.23,5.73,3.46c1.64,3.41,2.87,7,4.31,10.55,2,4.85,4,9.68,6.3,15.16,2-6.12,5.17-10.86,5.8-16.66.28-2.62,2.68-4,5.57-4,3.07.07,4.48,2.11,5.08,4.63,1,4,1.52,8.07,4.46,11.94,3-5.57,6-10.68,8.66-15.92,1.62-3.16,4.09-4.82,7.22-3.23,3.42,1.73,2,4.86.68,7.39q-6.09,11.66-12.44,23.2c-1.62,2.93-1.93,4.33,2.33,4.13,6.11-.28,7.38,1,7.44,7.15.1,12.15,0,24.31-.07,36.47,0,8.15,0,8.2,7.92,8,1.17,0,2.33-.07,3.5,0,11.83.47,10,.61,13.39-9.36,6-17.52,11.11-35.32,17.83-52.58,2.74-7,6.61-13.44,12.34-18.43,2.26-2,2.32-4.21,2.31-6.7-.07-14-.29-28-.17-42,.14-15.34,5.58-27.88,20-35.17,6-3,12.51-4.33,19.07-5.29,11.34-1.65,22.65-3.59,34.12-4.1,3-.12,3-1.22,1.5-3.35-6-8.62-11.08-17.67-12.25-28.4-.37-3.36-3.41-3.28-5.63-4-13.06-4.12-21.17-12.68-23.42-26.3-2-12.24,2.5-22.25,11.73-30,3.47-2.92,4.48-5.26,2.64-9.62-4.05-9.64-4.19-19.71-1.57-29.79.75-2.87.86-5.47-.83-8.08-7.73-11.89-8.82-24.81-5.36-38.22.7-2.72.37-4.38-1.74-6-3-2.38-3.51-5.64-2.13-9,1.5-3.62,4.72-3.79,8-3.09,15.66,3.3,28.8-1.53,40.12-12.34C223.34,14.35,234.8,8.08,248.37,6c.2,0,.33-.51.49-.77h15c8.08,2,16.19,4,23.19,8.89,1.62,1.13,3.11.08,4.54-.89C312-.72,348.9,5.4,357.6,37.85c1,3.79,3.27,4.07,6.25,4a35.1,35.1,0,0,1,24.14,9c5.41,4.74,5.91,8.74,0,12.53C379.11,69.2,377.78,74.8,382,85c5.78,14.08,2.93,29.19-1.78,43.43-1.77,5.37-1.21,8.53,3.47,12.22,15.53,12.26,16.18,46.06-12.27,55.22-4.34,1.39-6.7,3.25-7.39,7.83-1.3,8.51-5.35,15.93-10.14,23-.88,1.31-2.8,2.6-2,4.21s3,1,4.59,1.11c14.22,1.31,28.48,2.52,42.35,6,18.93,4.8,29,18,29.08,37.58.06,14.16,0,28.32-.06,42.47,0,2.36-.15,4.8,1.76,6.52,9.42,8.46,13.54,19.79,17.32,31.37,4.82,14.78,9.82,29.5,14.75,44.25.14.42.33.83.63,1.59,3.61-4.4,7-8.67,11.64-11.74,17.83-11.85,40.5-6.48,50.9,12.24,1.18,2.13,2.55,3.21,5,3.21,3.65,0,7.32.46,10.92-.56,9,1.78,9,1.78,9,11.47v3.49c-2.65-1.38-5.51-.62-8.25-.62q-266.49-.07-533-.06c-2.49,0-5-.15-7.47-.24,0-3.46.19-6.93-.08-10.37-.2-2.47.62-3,2.94-3.07C8.4,405.46,13,406.19,17.53,404.92ZM201.85,164.53c.45,9.78-1.09,21.34,1.59,32.65,6.93,29.23,27,46.22,54.12,55.14,26.68,8.78,50.22.64,71.12-16.94,15.22-12.79,24.55-28.28,24.9-48.87.39-23.3.76-46.58-2-69.77-1.1-9.33-4.05-18.09-10-25.64-1.71-2.17-3.31-2.81-5.91-1.58A36.85,36.85,0,0,1,317.74,93c-15.23-.91-29,3.09-42.64,9.71-19.22,9.36-38.7,6.74-58-.79-2.88-1.13-4.76-6.28-8-3.76-2.15,1.66-2.21,6-3.2,9.16-.05.15,0,.33-.07.49C201.86,125.94,201.86,144.4,201.85,164.53Zm76.8,177.18c24.32,0,48.64-.08,73,0,9.11,0,12.26,3.29,12.44,12.36.14,7.82.18,15.65.05,23.48,0,2.8.86,4.06,3.67,4.84,11.53,3.17,20.4,10.13,26.9,20.08,1.22,1.87,2.5,3,4.73,3,14.78,0,29.57,0,44.35.05,4.16,0,5.24-1.46,3.86-5.44-5.64-16.25-10.9-32.63-16.73-48.81s-17.32-26.75-34-31.52c-3.33-.95-6.62-2.06-9.87-3.26-16.59-6.13-33.18-12.26-49.73-18.53-3.12-1.18-4.84-.64-6.14,2.53A42.2,42.2,0,0,1,319.7,316c-15.81,13.92-34.44,16.94-54.51,13.36-17.18-3.06-30.52-12.07-38.61-27.65-2.37-4.56-4.32-5.34-8.71-3.47a621.52,621.52,0,0,1-59.56,21.92c-15.28,4.73-26.46,14.67-32,29.77-6.25,16.88-11.55,34.12-17.54,51.1-1.44,4.1.09,4.13,3.42,4.36,15.15,1.07,30.3-.77,45.43.1a5.67,5.67,0,0,0,5.7-3,45.79,45.79,0,0,1,24.54-19.38c3.61-1.21,4.52-3,4.44-6.46-.17-7.16-.12-14.32,0-21.48.11-9.1,4-13,13-13.37,1.83-.07,3.67-.07,5.5-.07Q244.68,341.69,278.65,341.71Zm8.81-308.33c-5.28-6.34-11.21-11.32-19.15-13.21-16.83-4-31.8.18-44.26,11.7-10.73,9.92-22.33,17.33-38,18.43,6.67,3,23.55,4.76,32.24,4,6.76-.62,13.51-2,20.37-.84,3.34.58,5.34,1.93,5.6,5.74s-1.22,5.46-4.71,6.07C229,67.06,218.42,67.9,207.78,66.6c-4.9-.6-9.75-1.54-14.62-2.33,2.2,2.11,2.83,4.89,4.62,6.86C216.8,92,249.6,103.83,277.41,87c9.35-5.66,20.22-7.71,31.13-7.1s21-.25,30.4-6.59c5.13-3.46,10.56,0,10.32,6a5.68,5.68,0,0,0,2.06,4.77c7.18,6.78,10.86,15.24,12.24,24.92.82,5.69.74,11.56,2.94,18.16,1.19-3.55,2.21-6,2.81-8.5,3.75-15.74,4.28-30.92-7.9-43.82-2.39-2.52-1.61-4.8,1-6.69,4.26-3.07,8.49-6.17,13.12-9.52-6.53-3.82-13.05-3.81-19.66-2.87-3.29.47-5.37-.58-6.63-3.74-1.82-4.6-4-9-5.82-13.67-4.58-11.87-14.3-18.81-27-19.14C304.6,18.92,295.37,24.13,287.46,33.38ZM277.91,355v0q-33.72,0-67.44,0c-2.65,0-5.16-.13-5.11,3.6.07,5.66.09,11.31.22,17,0,1.72.39,3.23,2.73,3.39,15.94,1.1,27.19,9.45,34.91,23a6.41,6.41,0,0,0,6,3.63q30-.06,59.93-.14a5.64,5.64,0,0,0,5.35-3c7.1-12.89,17.78-20.78,32.43-23,3-.46,3.71-2.11,3.59-4.84-.21-4.32-.38-8.65-.18-13,.29-6.27.09-6.67-6-6.67Zm-41.19-97.25c0,10.84.07,20.65,0,30.46-.05,5.31,2.22,9.55,5.45,13.5,16.25,19.87,47.7,19.5,63.88,7.91,7.62-5.45,14.13-12.37,14.25-22.78.08-8-.22-16-.15-23.93,0-4-.63-5.41-4.87-3a75.42,75.42,0,0,1-30.64,9.27C267.72,270.6,252.07,266.79,236.72,257.76ZM60.05,386.34h.06c0-5.14-.17-10.3.06-15.44.14-3.07-1.11-4.31-4-4.27-7.31.08-14.62.25-21.92.29-2.2,0-3.39.6-3.39,3.07,0,10.8-.1,21.6-.14,32.4,0,1.77.24,3.3,2.65,3.3,7.61,0,15.23,0,22.84.23,3.24.11,3.94-1.26,3.85-4.13C59.93,396.65,60.05,391.49,60.05,386.34Zm83-73.46c4.46-1.32,6-3.91,5.94-7.94q-.19-15.72,0-31.44c.11-7.95,3.44-12.41,11-14.5,5.89-1.62,11.89-2.86,17.9-4,13.72-2.56,27.47-5,41.67-7.49-2.08-2.85-4.64-2.51-7-2.35-16.06,1.08-32.12,2.38-48,5-13.12,2.13-21.17,9.68-21.41,20.43C142.77,284.53,143,298.5,143,312.88Zm33.85,93c16.79,0,32.88,0,49,0,1.17,0,3,.91,3.45-.81.37-1.33-1.09-2.26-2-3.21C213.38,387.37,190.47,389,176.86,405.85Zm151.16,0h48.25c.77,0,1.72.46,2.25-.39.69-1.13-.25-1.84-.93-2.52a36.62,36.62,0,0,0-14.39-9.41C349.6,388.91,334,394.19,328,405.85ZM189.81,165.58c0-5.16-.16-10.33.06-15.48.13-3.36-1.26-3.65-3.87-2.65-6,2.28-10.94,9.93-11.06,17.07-.13,7.84,4.56,15.41,11,18.06,2.69,1.09,4,.82,3.88-2.52C189.68,175.24,189.81,170.41,189.81,165.58Zm176.88-.93h.11c0,5,.17,10-.06,14.94-.16,3.46.79,4,3.93,2.67,7.05-3,11.14-9.46,11-17.86-.12-7.08-5.43-14.87-11.6-17.26-2.73-1-3.51-.2-3.43,2.56C366.79,154.68,366.69,159.67,366.69,164.65ZM190.47,127.81a118.51,118.51,0,0,1,2.15-23.62c1.12-5.92,1.61-11.08-1.51-16.75-2.79-5.06-5.82-10-8.61-15-.38-.69-.94-1.54-1.94-1.12s-.82,1.49-.58,2.15c1.34,3.7,1.32,8.32,4.18,11,6.51,6,5.51,12.18,3.29,19.77C185.15,112,185.65,120.39,190.47,127.81ZM492.65,405.86c5,0,10,.05,14.94,0,1,0,2.51.83,3-.71.41-1.26-.76-2.09-1.54-2.92-7.57-7.95-24.53-7.56-32,.75-.61.69-1.74,1.28-1.06,2.47.5.89,1.47.44,2.23.44C483,405.88,487.84,405.87,492.65,405.86ZM48,339.48c-1.54,4-2.81,7.08-3.85,10.19-.45,1.34-2.3,3.08.29,4.15a3.84,3.84,0,0,0,5.16-1.64C52.33,347.85,50.48,344.1,48,339.48Z"/><path class="cls-48" d="M1,419l-1,.92v-15l17.53,0c-4.52,1.27-9.13.54-13.7.65-2.32.06-3.14.6-2.94,3.07C1.16,412.08,1,415.55,1,419Z"/><path class="cls-48" d="M549.68,417.93v-1.49c0-9.69,0-9.69-9-11.47l9,0"/><path class="cls-49" d="M216.14,71.81q.75-6.82,1.51-13.64"/><path class="cls-1" d="M10.55,475.5v-9.86l33.32-21.25v13.09L22.45,470.4v.34l21.42,12.92v13.09Z"/><path class="cls-1" d="M70.05,455.78H54.15V443.54h46.42v12.24H84.67v43H70.05Z"/><path class="cls-1" d="M107.45,486.72c0-9.52,7.48-14.45,26.86-15.47-.51-3.06-3.4-4.42-8.16-4.42-3.57,0-7.14,1.19-12.24,3.57l-5.1-9.52A41.24,41.24,0,0,1,129,455.27c12.07,0,19.89,6,19.89,19.89v23.63H137l-1-4.42h-.34c-4.16,3.06-9.18,5.44-14.45,5.44C112.38,499.81,107.45,493.69,107.45,486.72Zm26.86-1.36v-5.44c-10.37.34-12.92,2.72-12.92,5.61,0,2,1.53,3.06,4.59,3.06C129.38,488.59,132,487.06,134.31,485.36Z"/><path class="cls-1" d="M157.43,477.54c0-13.94,8.84-22.27,17.76-22.27a12.51,12.51,0,0,1,9.95,4.25h.34l-.68-6.12V439.63h14.62v59.16h-11.9l-1-3.91h-.34c-3,2.89-7.14,4.93-11,4.93C164.4,499.81,157.43,491.31,157.43,477.54Zm27.37,7.31V469.21a7.93,7.93,0,0,0-5.61-2c-3.57,0-6.8,2.72-6.8,10.2,0,7.65,2.46,10.54,6.63,10.54A6.25,6.25,0,0,0,184.8,484.85Z"/><path class="cls-1" d="M221,481.28V451H208.26V439.63h27.37v42.16c0,4.93,3.4,6.29,6.37,6.29a18.39,18.39,0,0,0,6.13-1.19l3.14,10.71c-4.59,1.36-7.65,2.21-13.18,2.21C226.79,499.81,221,492.33,221,481.28Z"/><path class="cls-1" d="M260.45,486.72c0-9.52,7.48-14.45,26.86-15.47-.51-3.06-3.4-4.42-8.16-4.42-3.57,0-7.14,1.19-12.24,3.57l-5.1-9.52A41.24,41.24,0,0,1,282,455.27c12.07,0,19.89,6,19.89,19.89v23.63H290l-1-4.42h-.34c-4.17,3.06-9.18,5.44-14.45,5.44C265.38,499.81,260.45,493.69,260.45,486.72Zm26.86-1.36v-5.44c-10.37.34-12.92,2.72-12.92,5.61,0,2,1.53,3.06,4.59,3.06C282.38,488.59,285,487.06,287.31,485.36Z"/><path class="cls-1" d="M321.31,488.76a11.05,11.05,0,1,1,11.05,11.05A10.77,10.77,0,0,1,321.31,488.76Z"/><path class="cls-1" d="M361,511.88l4.16-10.37a19.85,19.85,0,0,0,8.25,1.87c5.19,0,6.89-2.21,6.89-8V467.68H364.14V456.29h30.78v38.59c0,10.37-4.42,19.89-20.49,19.89A31.07,31.07,0,0,1,361,511.88ZM377.75,442c0-5.1,3.91-8.67,9.35-8.67s9.35,3.57,9.35,8.67-3.91,8.5-9.35,8.5S377.75,447.11,377.75,442Z"/><path class="cls-1" d="M412.76,493.35l6.13-9a33.31,33.31,0,0,0,16.66,4.76c3.74,0,5.27-1,5.27-2.55,0-2-2.21-2.38-9.35-3.91-11.73-2.55-16-7-16-13.6,0-8.33,7.9-13.77,20.23-13.77,8,0,14.36,3.15,18.87,6l-6.46,8.67A28.27,28.27,0,0,0,434.36,466c-2.72,0-4.42.85-4.42,2.38,0,1.87,2.21,2,8.84,3.57,12.75,2.89,16.49,6.72,16.49,13.77,0,8-7.57,14.11-21.76,14.11A40.43,40.43,0,0,1,412.76,493.35Z"/><path class="cls-1" d="M493.35,438.44h12.07l-28.06,74H465.29Z"/><path class="cls-1" d="M518.84,483.66l21.42-12.92v-.34l-21.42-12.92V444.39l33.33,21.25v9.86l-33.33,21.25Z"/><text/></g></g></svg>